<svg width="481" height="466" viewBox="0 0 481 466" fill="none" xmlns="http://www.w3.org/2000/svg">
<path d="M344.829 466C420.034 466 481 460.372 481 453.43C481 446.488 420.034 440.86 344.829 440.86C269.623 440.86 208.657 446.488 208.657 453.43C208.657 460.372 269.623 466 344.829 466Z" fill="#FAFAFA"/>
<path opacity="0.1" d="M344.829 466C420.034 466 481 460.372 481 453.43C481 446.488 420.034 440.86 344.829 440.86C269.623 440.86 208.657 446.488 208.657 453.43C208.657 460.372 269.623 466 344.829 466Z" fill="#003049"/>
<path d="M118.778 266.508H75.373V279.142H118.778V266.508Z" fill="#F4F4F4"/>
<path opacity="0.05" d="M86.8892 266.508H81.2019V279.142H86.8892V266.508Z" fill="#003049"/>
<path d="M113.232 269.254H89.5835V276.74H113.232V269.254Z" fill="#FAFAFA"/>
<path d="M153.4 268.156L113.069 250.534L108.014 262.112L148.345 279.734L153.4 268.156Z" fill="#F4F4F4"/>
<path opacity="0.05" d="M153.4 268.156L113.069 250.534L108.014 262.112L148.345 279.734L153.4 268.156Z" fill="#003049"/>
<path d="M147.984 265.79L142.699 263.48L137.644 275.058L142.929 277.367L147.984 265.79Z" fill="#FAFAFA"/>
<path d="M139.097 264.903L117.124 255.302L114.128 262.163L136.101 271.764L139.097 264.903Z" fill="#FAFAFA"/>
<path opacity="0.05" d="M153.475 426.557H142.568V433.844H153.475V426.557Z" fill="#003049"/>
<path opacity="0.05" d="M41.9549 426.557H31.0471V433.844H41.9549V426.557Z" fill="#003049"/>
<path d="M163.474 279.734H21.0488V426.31H163.474V279.734Z" fill="#F4F4F4"/>
<path opacity="0.03" d="M163.474 279.734H21.0488V426.31H163.474V279.734Z" fill="#003049"/>
<path d="M189.868 279.734H47.4424V426.31H189.868V279.734Z" fill="#F4F4F4"/>
<path opacity="0.05" d="M179.869 426.557H168.961V433.844H179.869V426.557Z" fill="#003049"/>
<path opacity="0.05" d="M68.3489 426.557H57.4412V433.844H68.3489V426.557Z" fill="#003049"/>
<path opacity="0.7" d="M184.522 286.599H52.7893V314.76H184.522V286.599Z" fill="#FAFAFA"/>
<path opacity="0.7" d="M184.522 321.652H52.7893V349.812H184.522V321.652Z" fill="#FAFAFA"/>
<path opacity="0.7" d="M184.522 356.704H52.7893V384.865H184.522V356.704Z" fill="#FAFAFA"/>
<path opacity="0.05" d="M118.656 304.62C120.831 304.62 122.594 302.856 122.594 300.679C122.594 298.503 120.831 296.739 118.656 296.739C116.48 296.739 114.717 298.503 114.717 300.679C114.717 302.856 116.48 304.62 118.656 304.62Z" fill="#003049"/>
<path opacity="0.05" d="M118.656 339.672C120.831 339.672 122.594 337.908 122.594 335.732C122.594 333.556 120.831 331.792 118.656 331.792C116.48 331.792 114.717 333.556 114.717 335.732C114.717 337.908 116.48 339.672 118.656 339.672Z" fill="#003049"/>
<path opacity="0.05" d="M118.656 374.725C120.831 374.725 122.594 372.961 122.594 370.785C122.594 368.609 120.831 366.845 118.656 366.845C116.48 366.845 114.717 368.609 114.717 370.785C114.717 372.961 116.48 374.725 118.656 374.725Z" fill="#003049"/>
<path opacity="0.7" d="M184.522 392.547H52.7893V420.708H184.522V392.547Z" fill="#FAFAFA"/>
<path opacity="0.05" d="M118.656 410.568C120.831 410.568 122.594 408.803 122.594 406.627C122.594 404.451 120.831 402.687 118.656 402.687C116.48 402.687 114.717 404.451 114.717 406.627C114.717 408.803 116.48 410.568 118.656 410.568Z" fill="#003049"/>
<path d="M71.6071 134.251H155.824V24.5915L71.6071 24.5915L71.6071 134.251Z" fill="#F4F4F4"/>
<path d="M71.6078 24.5916H68.8757V134.251H71.6078V24.5916Z" fill="#F4F4F4"/>
<path opacity="0.05" d="M71.6078 24.5916H68.8757V134.251H71.6078V24.5916Z" fill="#003049"/>
<path opacity="0.05" d="M86.9491 114.275H140.483V44.5671H86.9491V114.275Z" fill="#003049"/>
<path opacity="0.03" d="M86.9491 114.275H89.739L89.739 44.5671H86.9491L86.9491 114.275Z" fill="#003049"/>
<path d="M2.73148 230.753H71.6072L71.6072 161.218H2.73148L2.73148 230.753Z" fill="#F4F4F4"/>
<path opacity="0.05" d="M15.2782 218.086H59.0605L59.0605 173.885H15.2782L15.2782 218.086Z" fill="#003049"/>
<path d="M2.73207 161.219H0V230.754H2.73207V161.219Z" fill="#F4F4F4"/>
<path opacity="0.05" d="M2.73207 161.219H0V230.754H2.73207V161.219Z" fill="#003049"/>
<path opacity="0.03" d="M15.2782 218.086H18.0681L18.0681 173.885H15.2782L15.2782 218.086Z" fill="#003049"/>
<path d="M422.726 24.3304H246.979V200.144H422.726V24.3304Z" fill="#F4F4F4"/>
<path d="M246.978 24.3304H244.964V200.144H246.978V24.3304Z" fill="#F4F4F4"/>
<path opacity="0.05" d="M246.978 24.3304H244.964V200.144H246.978V24.3304Z" fill="#003049"/>
<path opacity="0.05" d="M289.554 145.481V99.4816H327.22V126.206H385.563V173.525H410.361V200.144H385.563H380.787H255.433V145.481H289.554Z" fill="#003049"/>
<path opacity="0.34" d="M322.384 104.476H294.956V109.47H322.384V104.476Z" fill="#FFFFFA"/>
<path opacity="0.34" d="M322.384 114.826H294.956V119.82H322.384V114.826Z" fill="#FFFFFA"/>
<path opacity="0.34" d="M322.384 125.175H294.956V130.17H322.384V125.175Z" fill="#FFFFFA"/>
<path opacity="0.34" d="M265.352 150.328H260.296V155.323H265.352V150.328Z" fill="#FFFFFA"/>
<path opacity="0.34" d="M265.352 160.678H260.296V165.672H265.352V160.678Z" fill="#FFFFFA"/>
<path opacity="0.34" d="M265.352 171.027H260.296V176.022H265.352V171.027Z" fill="#FFFFFA"/>
<path opacity="0.34" d="M274.705 150.328H269.649V155.323H274.705V150.328Z" fill="#FFFFFA"/>
<path opacity="0.34" d="M274.705 160.678H269.649V165.672H274.705V160.678Z" fill="#FFFFFA"/>
<path opacity="0.34" d="M274.705 171.027H269.649V176.022H274.705V171.027Z" fill="#FFFFFA"/>
<path opacity="0.34" d="M283.804 150.328H278.749V155.323H283.804V150.328Z" fill="#FFFFFA"/>
<path opacity="0.34" d="M283.804 160.678H278.749V165.672H283.804V160.678Z" fill="#FFFFFA"/>
<path opacity="0.34" d="M283.804 171.027H278.749V176.022H283.804V171.027Z" fill="#FFFFFA"/>
<path d="M246.979 111.251H282.341V24.3298H285.266V111.251H380.786V24.3298H383.711V111.251H422.726V114.176H383.711V200.144H380.786V114.176H285.266V200.144H282.341V114.176H246.979V111.251Z" fill="#FAFAFA"/>
<path d="M429.727 199.932H239.977V205.779H429.727V199.932Z" fill="#F4F4F4"/>
<path opacity="0.1" d="M429.727 199.932H239.977V205.779H429.727V199.932Z" fill="#003049"/>
<path opacity="0.1" d="M239.977 199.932H237.237V205.779H239.977V199.932Z" fill="#003049"/>
<path opacity="0.1" d="M239.977 199.932H237.237V205.779H239.977V199.932Z" fill="#003049"/>
<path d="M392.59 230.051C365.684 230.051 343.873 237.394 343.873 246.453V265.978H441.308V246.453C441.308 237.394 419.496 230.051 392.59 230.051Z" fill="url(#paint0_linear_35:491)"/>
<path opacity="0.49" d="M392.59 230.051C365.684 230.051 343.873 237.394 343.873 246.453V265.978H441.308V246.453C441.308 237.394 419.496 230.051 392.59 230.051Z" fill="#FAFAFA"/>
<path opacity="0.49" d="M428.036 246.455V265.977H343.871V246.455C343.871 238.152 362.189 231.292 385.953 230.208C409.72 231.292 428.036 238.152 428.036 246.455Z" fill="#FAFAFA"/>
<path d="M441.307 455.703H442.942L441.307 264.246L439.686 265.882L440.842 399.62L383.124 400.601L381.96 265.868L380.339 265.882L381.504 400.629L346.662 401.221L345.492 265.868L343.871 264.26L345.506 455.703L347.113 455.69L346.675 402.843L381.517 402.251L381.96 455.703L383.581 455.69L383.138 402.223L440.856 401.242L441.307 455.703Z" fill="#003049"/>
<path d="M294.357 427.039C294.357 427.039 291.46 442.063 277.398 442.9C263.336 443.738 266.385 454.944 266.385 454.944H320.122V428.087L294.357 427.039Z" fill="url(#paint1_linear_35:491)"/>
<path d="M325.016 381.85C325.016 381.85 329.045 396.611 316.797 403.571C304.55 410.532 312.23 419.241 312.23 419.241L360.447 395.511L348.597 371.411L325.016 381.85Z" fill="url(#paint2_linear_35:491)"/>
<path d="M319.914 391.606L283.583 254.47C280.827 239.32 284.976 232.753 291.369 226.374C302.601 215.166 349.143 191.312 349.143 191.312L404.978 191.16C419.784 191.16 434.338 205.764 434.338 220.574C434.338 235.385 419.287 247.946 404.482 247.946L335.725 254.811L354.363 380.377L319.914 391.606Z" fill="#262626"/>
<path d="M354.362 380.376L347.025 330.942L309.852 353.626L319.914 391.605L354.362 380.376Z" fill="#0C0C0C"/>
<path d="M362.788 219.063C362.788 219.063 339.317 224.296 316.07 247.551C301.976 261.65 303.132 287.166 305.246 336.24L328.334 302.125L353.658 256.435L362.788 219.063Z" fill="#0C0C0C"/>
<path d="M444.058 191.144L406.138 190.965L406.124 191.465H394.642C394.642 191.465 365.88 217.94 342.725 234.623C325.882 246.758 315.607 258.327 314.718 270.936C312.551 301.674 288.106 432.764 288.106 432.764L324.895 438.336L357.18 281.674C357.18 281.674 407.661 258.391 419.337 250.291C430.333 242.662 438.099 239.712 441.738 231.386C448.022 217.007 444.058 191.144 444.058 191.144Z" fill="#262626"/>
<path d="M401.516 200.699L340.001 201.514L374.508 222.131L403.221 207.299C403.913 206.927 404.46 206.334 404.775 205.614C405.09 204.895 405.154 204.09 404.958 203.33C404.761 202.569 404.315 201.896 403.691 201.419C403.067 200.942 402.302 200.689 401.516 200.699V200.699Z" fill="#003049"/>
<path opacity="0.2" d="M401.516 200.699L340.001 201.514L374.508 222.131L403.221 207.299C403.913 206.927 404.46 206.334 404.775 205.614C405.09 204.895 405.154 204.09 404.958 203.33C404.761 202.569 404.315 201.896 403.691 201.419C403.067 200.942 402.302 200.689 401.516 200.699V200.699Z" fill="#FAFAFA"/>
<path d="M340.354 90.299L322.954 146.697L288.104 192.343L308.462 215.722L349.923 169.428C351.833 167.918 353.328 165.946 354.265 163.698L354.911 162.134L378.86 104.167L340.354 90.299Z" fill="url(#paint3_linear_35:491)"/>
<path d="M367.157 30.434C367.157 30.434 360.146 25.1364 358.409 12.952C357.064 3.51751 365.764 9.6297 365.764 9.6297C365.764 9.6297 364.861 2.82667 369.816 3.50184C374.772 4.177 377.544 11.3233 377.544 11.3233" fill="#0C0C0C"/>
<path d="M395.424 4.2981C395.424 4.2981 420.008 6.93444 411.121 40.2593L408.946 40.4053L404.53 40.7015" fill="#0C0C0C"/>
<path d="M371.275 75.062C371.383 75.0479 372.583 94.9549 395.699 93.2213C411.705 92.0217 417.412 75.0339 417.779 75.0339C416.053 74.6668 413.92 74.1101 413.073 73.9192C411.226 73.4904 409.553 72.5091 408.277 71.1058C407.001 69.7026 406.182 67.9439 405.929 66.0637C405.462 63.242 406.254 48.8045 406.011 45.9492L381.445 51.4349C381.789 57.4655 384.191 71.4451 375.771 73.9192C374.369 74.3279 372.859 74.7063 371.275 75.062Z" fill="#E98862"/>
<path d="M381.101 68.206C381.486 66.9652 381.734 65.686 381.84 64.3912C382.11 61.4367 382.056 58.4616 381.678 55.5189C386.672 54.8457 391.377 52.7847 395.258 49.5699C395.715 51.2554 398.224 58.6201 397.528 60.2191C396.216 63.2463 390.045 68.206 381.101 68.206Z" fill="#0C0C0C"/>
<path d="M386.172 64.2658C395.864 63.396 407.465 57.2697 407.633 44.1075L407.783 32.2312C407.951 19.0695 401.176 8.31168 388.788 8.15384C376.4 7.99653 367.005 18.5484 366.837 31.7107L366.771 36.9682C366.779 38.7739 366.911 40.5769 367.164 42.3647C367.8 47.0947 368.785 54.2858 371.994 59.1504C375.024 63.743 379.979 64.8209 386.172 64.2658Z" fill="#E98862"/>
<path d="M381.675 52.235C379.674 52.3256 377.681 51.9447 375.854 51.123C375.78 51.0893 375.721 51.0277 375.692 50.9515C375.662 50.8752 375.663 50.7904 375.695 50.7151C375.728 50.6398 375.788 50.5801 375.863 50.5487C375.939 50.5173 376.024 50.5168 376.1 50.5473C380.034 52.2258 383.606 51.9804 386.43 49.837C386.487 49.7919 386.546 49.7499 386.608 49.711C386.679 49.6776 386.76 49.6721 386.835 49.6956C386.909 49.7192 386.973 49.77 387.012 49.838C387.051 49.9061 387.063 49.9864 387.046 50.063C387.029 50.1396 386.983 50.2069 386.919 50.2516C386.896 50.2657 386.859 50.2943 386.811 50.3332C385.326 51.4646 383.538 52.1268 381.675 52.235V52.235Z" fill="#0C0C0C"/>
<path d="M381.766 55.2C381.404 55.2223 381.042 55.2136 380.682 55.1741C380.641 55.1697 380.602 55.1574 380.565 55.1378C380.529 55.1182 380.498 55.0916 380.472 55.0597C380.446 55.0278 380.427 54.9911 380.415 54.9517C380.404 54.9123 380.4 54.8711 380.404 54.8303C380.408 54.7894 380.421 54.7499 380.44 54.7138C380.46 54.6778 380.486 54.6459 380.518 54.6201C380.55 54.5943 380.587 54.5751 380.626 54.5634C380.666 54.5518 380.707 54.5481 380.748 54.5524C382.912 54.7821 383.946 53.7902 383.99 53.7475C384.049 53.6888 384.128 53.6557 384.211 53.6556C384.294 53.6555 384.373 53.6884 384.432 53.747C384.491 53.8055 384.524 53.885 384.524 53.9679C384.524 54.0509 384.491 54.1304 384.433 54.1891C383.687 54.8242 382.745 55.1814 381.766 55.2Z" fill="#0C0C0C"/>
<path d="M370.929 39.4992C371.772 39.4992 372.455 38.8157 372.455 37.9726C372.455 37.1295 371.772 36.446 370.929 36.446C370.086 36.446 369.403 37.1295 369.403 37.9726C369.403 38.8157 370.086 39.4992 370.929 39.4992Z" fill="#0C0C0C"/>
<path d="M385.837 38.5635C386.679 38.5635 387.363 37.88 387.363 37.0369C387.363 36.1938 386.679 35.5104 385.837 35.5104C384.994 35.5104 384.311 36.1938 384.311 37.0369C384.311 37.88 384.994 38.5635 385.837 38.5635Z" fill="#0C0C0C"/>
<path d="M406.812 48.1105C410.577 48.1586 413.68 44.1681 413.729 40.402C413.778 36.6359 410.751 34.5201 406.986 34.4725L405.015 36.971L403.577 48.0694L406.812 48.1105Z" fill="#E98862"/>
<path d="M403.067 42.056C403.067 42.056 401.796 23.4319 396.15 22.2815C392.39 21.5156 383.273 26.851 374.827 25.2395C371.133 24.5368 367.625 25.4493 367.269 27.1953C367.127 27.8867 364.826 17.9516 370.611 10.4139C375.218 4.41364 390.292 2.71627 397.151 4.68393C416.141 10.1339 407.761 35.2892 407.761 35.2892L406.915 41.7101L403.067 42.056Z" fill="#0C0C0C"/>
<path d="M379.399 47.84C379.391 47.8406 379.383 47.8406 379.375 47.84C378.162 47.8281 376.128 47.6719 376.136 46.7643C376.145 46.0118 378.285 37.9125 378.529 36.9914C378.55 36.9121 378.602 36.8444 378.672 36.8032C378.743 36.762 378.828 36.7507 378.907 36.7717C378.986 36.7927 379.054 36.8443 379.095 36.9152C379.136 36.9861 379.148 37.0705 379.127 37.1498C378.176 40.737 376.76 46.2594 376.754 46.7719C376.872 46.9881 378.125 47.2108 379.381 47.2238C379.46 47.2255 379.535 47.2575 379.592 47.3134C379.648 47.3692 379.681 47.4445 379.683 47.5237C379.685 47.603 379.657 47.6801 379.604 47.7391C379.551 47.7982 379.478 47.8347 379.399 47.8411V47.84Z" fill="#0C0C0C"/>
<path d="M375.26 29.6954C373.985 29.3444 372.639 29.3444 371.364 29.6954C370.738 29.8639 370.14 30.1256 369.592 30.4717C369.049 30.8106 368.552 31.2167 368.111 31.6804C368.03 31.763 367.984 31.8737 367.982 31.9896C367.98 32.1055 368.023 32.2175 368.102 32.3025C368.181 32.3874 368.289 32.4387 368.405 32.4457C368.521 32.4527 368.634 32.4148 368.723 32.3399L368.75 32.3161C369.158 31.9381 369.612 31.6132 370.101 31.349C370.581 31.086 371.098 30.8972 371.634 30.789C372.69 30.5676 373.786 30.6289 374.81 30.9668L374.853 30.982C375.02 31.036 375.203 31.0226 375.36 30.9444C375.518 30.8662 375.64 30.7295 375.698 30.5633C375.757 30.3972 375.749 30.2147 375.675 30.0546C375.601 29.8945 375.468 29.7696 375.303 29.7062L375.26 29.6954Z" fill="#0C0C0C"/>
<path d="M384.288 30.4614C385.259 29.9898 386.336 29.783 387.412 29.8619C387.958 29.8973 388.495 30.0154 389.006 30.2122C389.525 30.4092 390.017 30.6708 390.472 30.9906L390.501 31.01C390.598 31.0729 390.716 31.0957 390.83 31.0736C390.944 31.0515 391.045 30.9863 391.112 30.8915C391.179 30.7967 391.207 30.6798 391.19 30.565C391.173 30.4502 391.112 30.3464 391.02 30.2754C390.522 29.8746 389.975 29.5384 389.392 29.2748C388.802 29.005 388.175 28.8253 387.532 28.7418C386.222 28.5632 384.888 28.7419 383.671 29.2591C383.589 29.2946 383.515 29.3459 383.453 29.4099C383.392 29.4739 383.343 29.5495 383.31 29.6323C383.278 29.7152 383.262 29.8036 383.263 29.8926C383.265 29.9816 383.284 30.0694 383.319 30.1511C383.391 30.316 383.525 30.4456 383.692 30.5115C383.775 30.5441 383.864 30.5601 383.953 30.5586C384.042 30.557 384.129 30.5379 384.211 30.5024L384.249 30.4846L384.288 30.4614Z" fill="#0C0C0C"/>
<path d="M383.67 10.4988C384.526 6.39584 382.962 2.59754 380.176 2.01512C377.389 1.4327 374.435 4.28671 373.578 8.38971C372.722 12.4927 374.286 16.291 377.072 16.8734C379.859 17.4558 382.813 14.6018 383.67 10.4988Z" fill="#0C0C0C"/>
<path d="M342.55 118.817C343.279 127.375 348.44 180.771 349.143 191.313H444.016C444.561 181.805 447.009 140.229 449.076 121.634C451.05 103.892 453.815 95.8176 451.542 90.3044C447.534 80.5796 434.775 76.2372 426.135 75.0669C420.859 74.3522 412.924 73.8403 412.924 73.8403C412.924 73.8403 412.252 87.4372 396.231 88.194C374.422 89.2211 375.879 73.8403 375.771 73.8403C372.238 73.8403 353.007 76.4107 348.198 79.546C341.406 83.9743 339.398 90.0098 339.319 95.5544C339.228 101.94 341.726 109.109 342.55 118.817Z" fill="url(#paint4_linear_35:491)"/>
<path d="M347.361 170.271C347.293 170.271 347.228 170.246 347.178 170.2C347.128 170.155 347.097 170.092 347.091 170.024L343.496 128.898C343.49 128.827 343.512 128.756 343.558 128.701C343.604 128.646 343.67 128.611 343.741 128.605C343.777 128.602 343.813 128.605 343.847 128.616C343.881 128.626 343.913 128.643 343.94 128.666C343.967 128.689 343.99 128.717 344.006 128.749C344.022 128.781 344.032 128.816 344.034 128.851L347.629 169.977C347.635 170.049 347.613 170.12 347.567 170.174C347.521 170.229 347.455 170.264 347.384 170.27C347.376 170.271 347.368 170.271 347.361 170.271V170.271Z" fill="#0C0C0C"/>
<path d="M354.24 194.16L367.267 183.587L365.075 184.207C364.363 184.393 363.608 184.301 362.961 183.951C362.314 183.601 361.824 183.019 361.59 182.321C361.481 181.957 361.448 181.575 361.493 181.197C361.537 180.82 361.658 180.456 361.848 180.126C362.037 179.797 362.292 179.51 362.597 179.283C362.901 179.055 363.248 178.892 363.618 178.804L390.985 172.145L393.34 180.866C394.071 183.574 393.978 186.439 393.071 189.094C392.164 191.749 390.486 194.072 388.251 195.766L378.11 203.422C377.591 203.829 376.947 204.045 376.288 204.032C375.628 204.02 374.993 203.78 374.49 203.353C374.043 202.957 373.735 202.429 373.609 201.845C373.484 201.262 373.549 200.653 373.794 200.109C373.75 200.096 373.711 200.072 373.68 200.038C373.652 200.005 373.634 199.966 373.625 199.924C373.616 199.882 373.618 199.839 373.631 199.798L371.763 201.214C371.185 201.67 370.457 201.889 369.724 201.829C368.991 201.768 368.308 201.431 367.814 200.885C367.39 200.383 367.156 199.747 367.154 199.089C367.152 198.431 367.382 197.793 367.804 197.289C367.774 197.284 367.746 197.274 367.72 197.26L366.953 197.842C366.434 198.249 365.79 198.465 365.13 198.452C364.471 198.439 363.835 198.199 363.332 197.772C362.791 197.292 362.456 196.621 362.398 195.9C362.34 195.178 362.564 194.462 363.022 193.902C363.011 193.887 363.002 193.87 362.995 193.852L357.57 198.255C357.301 198.473 356.992 198.636 356.66 198.735C356.328 198.834 355.98 198.866 355.635 198.83C355.291 198.794 354.957 198.691 354.652 198.526C354.348 198.361 354.079 198.137 353.861 197.868C353.642 197.599 353.479 197.29 353.381 196.958C353.282 196.626 353.25 196.277 353.286 195.933C353.322 195.588 353.425 195.254 353.59 194.95C353.755 194.645 353.978 194.376 354.247 194.158L354.24 194.16Z" fill="#E98862"/>
<path opacity="0.2" d="M363.319 194.009C363.348 193.999 363.375 193.984 363.398 193.965L368.618 189.626C368.644 189.604 368.666 189.577 368.682 189.547C368.698 189.516 368.708 189.483 368.711 189.448C368.714 189.414 368.711 189.379 368.701 189.347C368.69 189.314 368.674 189.283 368.652 189.256C368.63 189.23 368.602 189.208 368.572 189.192C368.541 189.176 368.508 189.166 368.474 189.163C368.439 189.16 368.405 189.163 368.372 189.174C368.339 189.184 368.308 189.201 368.282 189.223L363.062 193.56C363.015 193.6 362.983 193.655 362.972 193.715C362.961 193.776 362.972 193.839 363.002 193.893C363.033 193.946 363.082 193.987 363.139 194.009C363.197 194.03 363.261 194.03 363.319 194.009Z" fill="#0A0A0A"/>
<path opacity="0.2" d="M367.919 197.286C367.947 197.276 367.974 197.261 367.997 197.242L372.125 193.864C372.179 193.82 372.214 193.757 372.221 193.687C372.228 193.618 372.207 193.549 372.163 193.495C372.119 193.441 372.055 193.407 371.986 193.4C371.916 193.393 371.847 193.413 371.793 193.457L367.664 196.835C367.616 196.874 367.583 196.929 367.572 196.99C367.56 197.051 367.571 197.114 367.601 197.168C367.632 197.222 367.681 197.264 367.739 197.285C367.797 197.307 367.861 197.307 367.919 197.286V197.286Z" fill="#0A0A0A"/>
<path opacity="0.2" d="M373.963 200.118C373.993 200.107 374.021 200.091 374.045 200.07L375.958 198.429C375.984 198.407 376.005 198.379 376.021 198.349C376.037 198.318 376.046 198.284 376.049 198.25C376.051 198.216 376.047 198.181 376.036 198.148C376.026 198.116 376.009 198.085 375.986 198.059C375.964 198.033 375.936 198.011 375.906 197.996C375.875 197.98 375.841 197.971 375.807 197.968C375.773 197.966 375.738 197.97 375.705 197.981C375.673 197.991 375.642 198.008 375.616 198.031L373.703 199.671C373.657 199.711 373.626 199.766 373.616 199.827C373.606 199.887 373.617 199.949 373.648 200.002C373.679 200.055 373.727 200.096 373.784 200.117C373.842 200.138 373.905 200.138 373.963 200.118V200.118Z" fill="#0A0A0A"/>
<path d="M469.376 168.263L469.276 167.819L451.959 91.1979L417.7 98.9453L431.216 158.753L377.073 172.062L383.736 202.625L455.889 188.858C456.051 188.826 456.291 188.777 456.456 188.74C458.648 188.244 460.722 187.321 462.557 186.024C464.393 184.726 465.956 183.08 467.156 181.178C468.355 179.277 469.169 177.158 469.55 174.942C469.931 172.725 469.872 170.456 469.376 168.263V168.263Z" fill="url(#paint5_linear_35:491)"/>
<path d="M376.808 172.12C376.794 172.052 376.807 171.98 376.844 171.921C376.882 171.862 376.94 171.819 377.008 171.802L430.911 158.559L422.147 119.834C422.137 119.799 422.134 119.762 422.139 119.726C422.144 119.69 422.156 119.655 422.175 119.623C422.193 119.592 422.218 119.564 422.248 119.543C422.277 119.521 422.311 119.506 422.347 119.498C422.383 119.49 422.42 119.489 422.456 119.496C422.492 119.502 422.526 119.516 422.556 119.537C422.587 119.557 422.613 119.583 422.633 119.614C422.653 119.645 422.667 119.679 422.673 119.715L431.496 158.698C431.512 158.767 431.5 158.84 431.463 158.901C431.426 158.962 431.366 159.005 431.297 159.022L377.391 172.266C377.391 172.266 377.752 173.843 377.854 174.374C377.862 174.444 377.842 174.513 377.799 174.568C377.756 174.623 377.693 174.658 377.623 174.666C377.554 174.674 377.485 174.654 377.43 174.611C377.375 174.567 377.34 174.504 377.332 174.435C377.208 173.852 376.808 172.12 376.808 172.12Z" fill="#0C0C0C"/>
<path d="M378.921 214.798L358.104 150.783C357.738 149.658 357.026 148.677 356.069 147.982C355.112 147.287 353.96 146.912 352.778 146.913H267.966C267.082 146.913 266.21 147.122 265.423 147.523C264.635 147.925 263.953 148.507 263.434 149.223C262.914 149.939 262.571 150.767 262.433 151.641C262.295 152.514 262.366 153.408 262.64 154.249L283.458 218.265C283.823 219.39 284.536 220.37 285.493 221.065C286.449 221.76 287.601 222.135 288.784 222.135H373.595C374.479 222.135 375.351 221.925 376.138 221.524C376.926 221.122 377.607 220.54 378.127 219.824C378.646 219.108 378.989 218.28 379.127 217.406C379.265 216.533 379.195 215.639 378.921 214.798V214.798Z" fill="#003049"/>
<path opacity="0.2" d="M378.921 214.798L358.104 150.783C357.738 149.658 357.026 148.677 356.069 147.982C355.112 147.287 353.96 146.912 352.778 146.913H267.966C267.082 146.913 266.21 147.122 265.423 147.523C264.635 147.925 263.953 148.507 263.434 149.223C262.914 149.939 262.571 150.767 262.433 151.641C262.295 152.514 262.366 153.408 262.64 154.249L283.458 218.265C283.823 219.39 284.536 220.37 285.493 221.065C286.449 221.76 287.601 222.135 288.784 222.135H373.595C374.479 222.135 375.351 221.925 376.138 221.524C376.926 221.122 377.607 220.54 378.127 219.824C378.646 219.108 378.989 218.28 379.127 217.406C379.265 216.533 379.195 215.639 378.921 214.798V214.798Z" fill="#FAFAFA"/>
<path d="M318.337 193.422C323.25 193.422 327.232 189.438 327.232 184.524C327.232 179.609 323.25 175.625 318.337 175.625C313.425 175.625 309.442 179.609 309.442 184.524C309.442 189.438 313.425 193.422 318.337 193.422Z" fill="#FAFAFA"/>
<path d="M234.602 6.76465H66.2718C58.4734 6.76465 52.1516 13.0889 52.1516 20.8902V225.316C52.1516 233.118 58.4734 239.442 66.2718 239.442H234.602C242.4 239.442 248.722 233.118 248.722 225.316V20.8902C248.722 13.0889 242.4 6.76465 234.602 6.76465Z" fill="#003049"/>
<path d="M240.823 0.540527H72.4935C64.6951 0.540527 58.3733 6.86475 58.3733 14.6661V219.092C58.3733 226.894 64.6951 233.218 72.4935 233.218H240.823C248.622 233.218 254.944 226.894 254.944 219.092V14.6661C254.944 6.86475 248.622 0.540527 240.823 0.540527Z" fill="#FAFAFA"/>
<path d="M240.824 233.758H72.4936C68.6066 233.754 64.88 232.207 62.1315 229.458C59.3831 226.708 57.8372 222.98 57.833 219.092V14.6661C57.8373 10.7777 59.3833 7.04985 62.1317 4.30035C64.8802 1.55085 68.6067 0.00429245 72.4936 0L240.824 0C244.71 0.0044355 248.437 1.55105 251.185 4.30054C253.933 7.05002 255.479 10.7778 255.484 14.6661V219.092C255.479 222.98 253.934 226.708 251.185 229.458C248.437 232.207 244.71 233.754 240.824 233.758V233.758ZM72.4936 1.08113C68.8932 1.08514 65.4414 2.5177 62.8956 5.06451C60.3498 7.61132 58.9177 11.0644 58.9137 14.6661V219.092C58.9177 222.693 60.3498 226.147 62.8956 228.693C65.4414 231.24 68.8932 232.673 72.4936 232.677H240.824C244.424 232.673 247.876 231.24 250.421 228.693C252.967 226.146 254.399 222.693 254.403 219.092V14.6661C254.399 11.0644 252.967 7.61137 250.421 5.06454C247.876 2.51772 244.424 1.08514 240.824 1.08113H72.4936Z" fill="#003049"/>
<path d="M56.1059 262.469C75.4674 262.469 91.163 246.767 91.163 227.399C91.163 208.03 75.4674 192.328 56.1059 192.328C36.7444 192.328 21.0488 208.03 21.0488 227.399C21.0488 246.767 36.7444 262.469 56.1059 262.469Z" fill="#003049"/>
<path d="M48.8282 222.822C48.3666 222.822 47.924 222.638 47.5976 222.312C47.2712 221.986 47.0878 221.543 47.0876 221.081V212.653C47.0876 207.993 51.1333 204.201 56.1058 204.201C61.0782 204.201 65.1239 207.993 65.1239 212.653V220.503C65.1279 220.734 65.0859 220.964 65.0003 221.178C64.9147 221.393 64.7872 221.589 64.6252 221.754C64.4632 221.919 64.2699 222.05 64.0568 222.139C63.8436 222.228 63.6148 222.275 63.3836 222.275C63.1525 222.275 62.9237 222.228 62.7105 222.139C62.4973 222.05 62.3041 221.919 62.1421 221.754C61.9801 221.589 61.8526 221.393 61.767 221.178C61.6813 220.964 61.6393 220.734 61.6434 220.503V212.653C61.6434 209.912 59.1577 207.683 56.1058 207.683C53.0538 207.683 50.5681 209.912 50.5681 212.653V221.082C50.5678 221.544 50.3844 221.986 50.0581 222.312C49.7318 222.638 49.2894 222.822 48.8282 222.822V222.822Z" fill="#FAFAFA"/>
<path d="M67.2082 219.624H45.0036C43.7087 219.624 42.6589 220.674 42.6589 221.97V242.893C42.6589 244.188 43.7087 245.239 45.0036 245.239H67.2082C68.5031 245.239 69.5528 244.188 69.5528 242.893V221.97C69.5528 220.674 68.5031 219.624 67.2082 219.624Z" fill="#FAFAFA"/>
<path d="M53.8953 230.36C53.8951 230.775 54.0115 231.181 54.2313 231.533C54.451 231.885 54.7653 232.168 55.1381 232.35V235.748C55.1381 236.004 55.2398 236.25 55.4208 236.431C55.6018 236.612 55.8472 236.714 56.1032 236.714C56.3592 236.714 56.6046 236.612 56.7856 236.431C56.9666 236.25 57.0683 236.004 57.0683 235.748V232.35C57.4234 232.178 57.7259 231.913 57.9444 231.585C58.1629 231.256 58.2893 230.874 58.3106 230.48C58.3319 230.086 58.2472 229.693 58.0655 229.342C57.8837 228.992 57.6114 228.696 57.2769 228.487C56.9423 228.277 56.5578 228.161 56.1632 228.15C55.7686 228.139 55.3783 228.234 55.0329 228.426C54.6876 228.617 54.3996 228.897 54.1991 229.237C53.9986 229.577 53.8927 229.965 53.8926 230.36H53.8953Z" fill="#003049"/>
<path d="M226.124 116.64H87.1928C83.8763 116.64 81.1877 119.329 81.1877 122.647V142.131C81.1877 145.449 83.8763 148.139 87.1928 148.139H226.124C229.44 148.139 232.129 145.449 232.129 142.131V122.647C232.129 119.329 229.44 116.64 226.124 116.64Z" fill="#FAFAFA"/>
<path d="M226.123 148.679H87.1929C85.4575 148.677 83.7938 147.986 82.5668 146.759C81.3397 145.531 80.6495 143.867 80.6475 142.131V122.647C80.6495 120.911 81.3397 119.247 82.5667 118.019C83.7938 116.792 85.4575 116.101 87.1929 116.099H226.123C227.859 116.101 229.523 116.791 230.75 118.019C231.977 119.247 232.667 120.911 232.669 122.647V142.131C232.667 143.867 231.977 145.531 230.75 146.759C229.523 147.986 227.859 148.677 226.123 148.679ZM87.1929 117.18C85.7439 117.181 84.3548 117.758 83.3303 118.783C82.3058 119.808 81.7296 121.198 81.7282 122.647V142.131C81.7298 143.58 82.306 144.97 83.3305 145.995C84.355 147.02 85.744 147.596 87.1929 147.598H226.123C227.572 147.596 228.961 147.02 229.986 145.995C231.01 144.97 231.587 143.58 231.589 142.131V122.647C231.587 121.198 231.011 119.808 229.986 118.783C228.962 117.758 227.572 117.181 226.123 117.18H87.1929Z" fill="#003049"/>
<path d="M226.124 161.655H87.1928C83.8763 161.655 81.1877 164.344 81.1877 167.662V187.146C81.1877 190.464 83.8763 193.154 87.1928 193.154H226.124C229.44 193.154 232.129 190.464 232.129 187.146V167.662C232.129 164.344 229.44 161.655 226.124 161.655Z" fill="#FAFAFA"/>
<path d="M226.123 193.694H87.1929C85.4573 193.692 83.7933 193.001 82.5662 191.773C81.3391 190.545 80.649 188.881 80.6475 187.144V167.662C80.6495 165.926 81.3397 164.262 82.5668 163.034C83.7938 161.807 85.4575 161.116 87.1929 161.114H226.123C227.859 161.116 229.523 161.807 230.75 163.034C231.977 164.262 232.667 165.926 232.669 167.662V187.144C232.668 188.881 231.978 190.545 230.75 191.773C229.523 193.001 227.859 193.692 226.123 193.694ZM87.1929 162.196C85.744 162.197 84.355 162.774 83.3305 163.798C82.306 164.823 81.7298 166.213 81.7282 167.662V187.144C81.7298 188.594 82.306 189.983 83.3305 191.008C84.355 192.033 85.744 192.609 87.1929 192.611H226.123C227.572 192.61 228.961 192.033 229.986 191.008C231.011 189.983 231.587 188.594 231.589 187.144V167.662C231.587 166.213 231.011 164.823 229.986 163.798C228.961 162.773 227.572 162.197 226.123 162.196H87.1929Z" fill="#003049"/>
<path d="M156.658 93.2099C174.473 93.2099 188.914 78.7628 188.914 60.9413C188.914 43.1199 174.473 28.6727 156.658 28.6727C138.843 28.6727 124.402 43.1199 124.402 60.9413C124.402 78.7628 138.843 93.2099 156.658 93.2099Z" fill="#FAFAFA"/>
<path d="M156.658 93.7505C150.172 93.7505 143.831 91.8263 138.437 88.2212C133.044 84.6161 128.84 79.492 126.358 73.4969C123.876 67.5018 123.226 60.905 124.492 54.5406C125.757 48.1763 128.881 42.3302 133.467 37.7418C138.054 33.1534 143.898 30.0286 150.26 28.7626C156.622 27.4967 163.216 28.1464 169.209 30.6297C175.202 33.1129 180.324 37.3181 183.928 42.7136C187.531 48.109 189.455 54.4523 189.455 60.9414C189.445 69.6399 185.987 77.9794 179.838 84.1302C173.69 90.281 165.353 93.7408 156.658 93.7505V93.7505ZM156.658 29.2134C150.385 29.2134 144.253 31.0742 139.038 34.5605C133.822 38.0468 129.757 43.002 127.356 48.7996C124.956 54.5971 124.328 60.9766 125.551 67.1312C126.775 73.2858 129.796 78.9392 134.231 83.3765C138.667 87.8137 144.318 90.8355 150.471 92.0598C156.623 93.284 163 92.6557 168.795 90.2543C174.591 87.8528 179.544 83.7862 183.029 78.5685C186.514 73.3509 188.374 67.2166 188.374 60.9414C188.365 52.5295 185.02 44.4648 179.074 38.5167C173.128 32.5686 165.067 29.2228 156.658 29.2134V29.2134Z" fill="#003049"/>
<path opacity="0.5" d="M188.198 60.9413C188.207 68.4102 185.558 75.6384 180.725 81.331C177.748 77.8592 174.056 75.0727 169.901 73.1625C165.747 71.2524 161.228 70.2638 156.656 70.2646C152.084 70.2655 147.566 71.2557 143.412 73.1673C139.258 75.0789 135.567 77.8668 132.591 81.3396C129.309 77.4646 127.011 72.8543 125.891 67.9005C124.772 62.9466 124.864 57.7956 126.161 52.8851C127.457 47.9746 129.919 43.4497 133.338 39.6949C136.757 35.94 141.031 33.0663 145.797 31.3177C150.564 29.5692 155.682 28.9975 160.717 29.6513C165.752 30.3052 170.554 32.1651 174.717 35.0732C178.879 37.9813 182.278 41.8515 184.625 46.3551C186.972 50.8587 188.198 55.8625 188.198 60.9413V60.9413Z" fill="url(#paint6_linear_35:491)"/>
<path d="M180.725 81.331C177.765 84.8281 174.078 87.6382 169.923 89.5658C165.767 91.4935 161.241 92.4925 156.66 92.4933C152.079 92.4941 147.553 91.4968 143.397 89.5706C139.24 87.6444 135.553 84.8357 132.592 81.3397C135.567 77.8668 139.258 75.079 143.412 73.1673C147.566 71.2557 152.084 70.2655 156.656 70.2646C161.228 70.2638 165.747 71.2524 169.901 73.1626C174.056 75.0727 177.748 77.8592 180.725 81.331V81.331Z" fill="#FAFAFA"/>
<path d="M156.659 64.3778C163.7 64.3778 169.407 58.6678 169.407 51.6242C169.407 44.5806 163.7 38.8706 156.659 38.8706C149.618 38.8706 143.91 44.5806 143.91 51.6242C143.91 58.6678 149.618 64.3778 156.659 64.3778Z" fill="#FAFAFA"/>
<g opacity="0.4">
<path opacity="0.4" d="M92.8825 181.24C95.0002 181.24 96.7169 179.523 96.7169 177.404C96.7169 175.286 95.0002 173.568 92.8825 173.568C90.7648 173.568 89.0481 175.286 89.0481 177.404C89.0481 179.523 90.7648 181.24 92.8825 181.24Z" fill="#003049"/>
<path opacity="0.4" d="M104.877 181.24C106.995 181.24 108.711 179.523 108.711 177.404C108.711 175.286 106.995 173.568 104.877 173.568C102.759 173.568 101.042 175.286 101.042 177.404C101.042 179.523 102.759 181.24 104.877 181.24Z" fill="#003049"/>
<path opacity="0.4" d="M116.871 181.24C118.989 181.24 120.706 179.523 120.706 177.404C120.706 175.286 118.989 173.568 116.871 173.568C114.754 173.568 113.037 175.286 113.037 177.404C113.037 179.523 114.754 181.24 116.871 181.24Z" fill="#003049"/>
<path opacity="0.4" d="M128.866 181.24C130.984 181.24 132.7 179.523 132.7 177.404C132.7 175.286 130.984 173.568 128.866 173.568C126.748 173.568 125.031 175.286 125.031 177.404C125.031 179.523 126.748 181.24 128.866 181.24Z" fill="#003049"/>
<path opacity="0.4" d="M140.86 181.24C142.977 181.24 144.694 179.523 144.694 177.404C144.694 175.286 142.977 173.568 140.86 173.568C138.742 173.568 137.025 175.286 137.025 177.404C137.025 179.523 138.742 181.24 140.86 181.24Z" fill="#003049"/>
<path opacity="0.4" d="M152.854 181.24C154.972 181.24 156.689 179.523 156.689 177.404C156.689 175.286 154.972 173.568 152.854 173.568C150.736 173.568 149.02 175.286 149.02 177.404C149.02 179.523 150.736 181.24 152.854 181.24Z" fill="#003049"/>
<path opacity="0.4" d="M164.849 181.24C166.966 181.24 168.683 179.523 168.683 177.404C168.683 175.286 166.966 173.568 164.849 173.568C162.731 173.568 161.014 175.286 161.014 177.404C161.014 179.523 162.731 181.24 164.849 181.24Z" fill="#003049"/>
</g>
<g opacity="0.3">
<path opacity="0.3" d="M96.6856 132.158V133.455H91.7612V132.158H96.6856Z" fill="black"/>
<path opacity="0.3" d="M102.805 132.158V133.455H97.8809V132.158H102.805Z" fill="black"/>
<path opacity="0.3" d="M108.924 132.158V133.455H104V132.158H108.924Z" fill="black"/>
<path opacity="0.3" d="M115.043 132.158V133.455H110.119V132.158H115.043Z" fill="black"/>
<path opacity="0.3" d="M121.163 132.158V133.455H116.239V132.158H121.163Z" fill="black"/>
<path opacity="0.3" d="M132.207 139.478C131.112 140.041 129.891 140.316 128.66 140.277C125.391 140.277 122.619 137.884 122.619 134.054C122.619 129.946 125.471 126.395 129.896 126.395C133.365 126.395 135.698 128.828 135.698 132.159C135.698 135.151 134.023 136.906 132.149 136.906C131.352 136.906 130.614 136.366 130.674 135.151H130.594C130.336 135.677 129.936 136.12 129.44 136.431C128.943 136.741 128.369 136.905 127.784 136.906C126.628 136.906 125.631 135.969 125.631 134.394C125.628 133.772 125.749 133.156 125.986 132.582C126.222 132.007 126.57 131.485 127.01 131.046C127.449 130.607 127.971 130.258 128.545 130.022C129.119 129.785 129.735 129.664 130.356 129.666C131.089 129.656 131.815 129.798 132.489 130.085L131.811 133.695C131.512 135.209 131.752 135.912 132.409 135.929C133.426 135.949 134.563 134.593 134.563 132.279C134.563 129.387 132.828 127.313 129.738 127.313C126.488 127.313 123.757 129.886 123.757 133.935C123.757 137.266 125.93 139.32 128.881 139.32C129.927 139.344 130.962 139.104 131.891 138.622L132.207 139.478ZM131.11 130.862C130.787 130.766 130.451 130.719 130.113 130.722C128.359 130.722 126.944 132.377 126.944 134.312C126.944 135.189 127.382 135.826 128.259 135.826C129.416 135.826 130.472 134.35 130.691 133.113L131.11 130.862Z" fill="black"/>
<path opacity="0.3" d="M141.973 132.158V133.455H137.049V132.158H141.973Z" fill="black"/>
<path opacity="0.3" d="M148.093 132.158V133.455H143.168V132.158H148.093Z" fill="black"/>
<path opacity="0.3" d="M154.212 132.158V133.455H149.288V132.158H154.212Z" fill="black"/>
</g>
<defs>
<linearGradient id="paint0_linear_35:491" x1="347.739" y1="227.2" x2="366.096" y2="294.264" gradientUnits="userSpaceOnUse">
<stop stop-color="#F77F00"/>
<stop offset="1" stop-color="#FCBF49"/>
</linearGradient>
<linearGradient id="paint1_linear_35:491" x1="268.25" y1="424.824" x2="286.97" y2="473.638" gradientUnits="userSpaceOnUse">
<stop stop-color="#F77F00"/>
<stop offset="1" stop-color="#FCBF49"/>
</linearGradient>
<linearGradient id="paint2_linear_35:491" x1="311.86" y1="367.615" x2="356.986" y2="431.919" gradientUnits="userSpaceOnUse">
<stop stop-color="#F77F00"/>
<stop offset="1" stop-color="#FCBF49"/>
</linearGradient>
<linearGradient id="paint3_linear_35:491" x1="291.705" y1="80.3448" x2="417.496" y2="202.962" gradientUnits="userSpaceOnUse">
<stop stop-color="#F77F00"/>
<stop offset="1" stop-color="#FCBF49"/>
</linearGradient>
<linearGradient id="paint4_linear_35:491" x1="343.804" y1="64.5171" x2="457.79" y2="212.326" gradientUnits="userSpaceOnUse">
<stop stop-color="#F77F00"/>
<stop offset="1" stop-color="#FCBF49"/>
</linearGradient>
<linearGradient id="paint5_linear_35:491" x1="380.753" y1="82.3545" x2="491.818" y2="206.859" gradientUnits="userSpaceOnUse">
<stop stop-color="#F77F00"/>
<stop offset="1" stop-color="#FCBF49"/>
</linearGradient>
<linearGradient id="paint6_linear_35:491" x1="127.618" y1="25.2657" x2="174.007" y2="101.147" gradientUnits="userSpaceOnUse">
<stop stop-color="#F77F00"/>
<stop offset="1" stop-color="#FCBF49"/>
</linearGradient>
</defs>
</svg>
